<?xml version="1.0" encoding="UTF-8" standalone="no"?>
<!DOCTYPE svg PUBLIC "-//W3C//DTD SVG 1.1//EN" "http://www.w3.org/Graphics/SVG/1.1/DTD/svg11.dtd">
<svg width="100%" height="100%" viewBox="0 0 94489 94489" version="1.1" xmlns="http://www.w3.org/2000/svg" xmlns:xlink="http://www.w3.org/1999/xlink" xml:space="preserve" xmlns:serif="http://www.serif.com/" style="fill-rule:evenodd;clip-rule:evenodd;stroke-linecap:round;stroke-linejoin:round;stroke-miterlimit:1.5;">
    <g transform="matrix(51.6153,0,0,51.5269,-128986,65007)">
        <g transform="matrix(1.64468,0,0,1.64468,1055.56,-2611.2)">
            <path d="M1971.52,1094.48C1971.52,926.857 1831.41,839.739 1718.17,839.739L1151.55,840.592C1024.18,840.592 896.81,938.686 896.81,1095.33L896.81,1663.6C896.81,1789.02 999.998,1916.39 1151.55,1916.39L1718.17,1916.39C1827.97,1916.39 1971.52,1830.4 1971.52,1661.65L1971.52,1094.48Z" style="fill:rgb(0,203,255);"/>
        </g>
        <g transform="matrix(1.72222,0,0,1.72222,599.204,-1492.36)">
            <path d="M2056.32,395.801C2056.32,328.728 2004.7,246.99 1905.8,246.99L1364.68,246.99C1284.28,246.99 1214.17,315.399 1214.17,395.801L1214.17,941.958C1214.17,1009.03 1271.72,1087.54 1364.68,1087.54L1905.8,1087.7C2001.19,1087.54 2056.32,1006.83 2056.32,939.046L2056.32,395.801Z" style="fill:white;"/>
        </g>
        <g>
            <g transform="matrix(1.64468,0,0,1.64468,2550.59,-1482.68)">
                <circle cx="322.576" cy="1116.28" r="78.559" style="fill:white;"/>
            </g>
            <g transform="matrix(1.64468,0,0,1.64468,3267.34,-2879.43)">
                <circle cx="322.576" cy="1116.28" r="78.559" style="fill:white;"/>
            </g>
            <g transform="matrix(1.64468,0,0,1.64468,2848.6,-2879.43)">
                <circle cx="322.576" cy="1116.28" r="78.559" style="fill:white;"/>
            </g>
            <g transform="matrix(1.01668,0,0,1.01668,3237.37,-2200.99)">
                <circle cx="322.576" cy="1116.28" r="78.559" style="fill:white;"/>
            </g>
            <g transform="matrix(1,0,0,1,-16.4468,-16.4468)">
                <g transform="matrix(1.64468,0,0,1.64468,2203.94,-2245.95)">
                    <circle cx="322.576" cy="1116.28" r="78.559" style="fill:white;"/>
                </g>
                <g transform="matrix(1.64468,0,0,1.64468,2203.94,-1885.78)">
                    <circle cx="322.576" cy="1116.28" r="78.559" style="fill:white;"/>
                </g>
                <g transform="matrix(1.64468,0,0,1.64468,2289.75,-1585.04)">
                    <rect x="191.843" y="714.424" width="154.987" height="218.996" style="fill:white;"/>
                </g>
            </g>
            <g transform="matrix(1,0,0,1,19.7361,-67.4317)">
                <g transform="matrix(1.64468,0,0,1.64468,3559.62,-2390.39)">
                    <circle cx="322.576" cy="1116.28" r="78.559" style="fill:white;"/>
                </g>
                <g transform="matrix(1.64468,0,0,1.64468,3559.62,-2030.21)">
                    <circle cx="322.576" cy="1116.28" r="78.559" style="fill:white;"/>
                </g>
                <g transform="matrix(1.49817,0,0,1.64468,2461.64,-1585.04)">
                    <rect x="995.68" y="618.735" width="177.561" height="226.868" style="fill:white;"/>
                </g>
            </g>
        </g>
        <g>
            <g transform="matrix(1.72222,0,0,1.72222,599.204,-1492.36)">
                <path d="M1531.79,246.99L1364.68,246.99C1284.28,246.99 1214.17,315.399 1214.17,395.801L1214.17,536.433" style="fill:none;stroke:black;stroke-width:17.5px;"/>
            </g>
            <g transform="matrix(1.72222,0,0,1.72222,599.204,-1492.36)">
                <path d="M1214.17,910.392C1214.17,941.805 1214.17,941.958 1214.17,941.958C1214.17,1006.64 1267.7,1081.97 1354.89,1087.25C1355.36,1087.28 1358.55,1087.44 1359.02,1087.46" style="fill:none;stroke:black;stroke-width:17.5px;"/>
            </g>
            <g transform="matrix(1.72222,0,0,1.72222,599.204,-1492.36)">
                <path d="M1523.2,1087.7L1905.8,1087.7C2001.19,1087.54 2056.32,1006.83 2056.32,939.046L2056.32,796.452" style="fill:none;stroke:black;stroke-width:17.5px;"/>
            </g>
            <g transform="matrix(1.72222,0,0,1.72222,599.204,-1492.36)">
                <path d="M2056.32,423.531L2056.32,395.801C2056.32,337.797 2017.72,268.826 1943.31,251.235C1942.58,251.062 1941.27,250.784 1940.53,250.62" style="fill:none;stroke:black;stroke-width:17.5px;"/>
            </g>
        </g>
        <g id="V2" transform="matrix(1.12255,0,0,1.12255,-106.855,-2000.76)">
            <g id="แป้งปั้น" transform="matrix(1.0388,0,0,1.0388,-94.5708,-70.048)">
                <g transform="matrix(1,0,0,1,1991.3,203.637)">
                    <g transform="matrix(1.4632,0,0,1.4632,475.78,-1481.86)">
                        <path d="M558.339,1494.24C577.205,1494.24 592.522,1509.55 592.522,1528.42C592.522,1547.29 577.205,1562.6 558.339,1562.6C539.474,1562.6 524.157,1547.29 524.157,1528.42C524.157,1509.55 539.474,1494.24 558.339,1494.24ZM558.339,1516.02C551.484,1516.02 545.9,1521.56 545.9,1528.42C545.9,1535.28 551.484,1540.82 558.339,1540.82C565.195,1540.82 570.779,1535.28 570.779,1528.42C570.779,1521.56 565.195,1516.02 558.339,1516.02Z"/>
                    </g>
                    <g transform="matrix(1.4632,0,0,1.4632,651.899,-1252.73)">
                        <path d="M558.339,1494.24C577.205,1494.24 592.522,1509.55 592.522,1528.42C592.522,1547.29 577.205,1562.6 558.339,1562.6C539.474,1562.6 524.157,1547.29 524.157,1528.42C524.157,1509.55 539.474,1494.24 558.339,1494.24ZM558.339,1516.02C551.484,1516.02 545.9,1521.56 545.9,1528.42C545.9,1535.28 551.484,1540.82 558.339,1540.82C565.195,1540.82 570.779,1535.28 570.779,1528.42C570.779,1521.56 565.195,1516.02 558.339,1516.02Z"/>
                    </g>
                    <g transform="matrix(5.35164,0,0,1.54288,-6194.78,-366.122)">
                        <path d="M1428.02,644.16L1427.89,852.48L1427.89,858.526" style="fill:none;stroke:black;stroke-width:8.08px;"/>
                    </g>
                    <g transform="matrix(0.821177,0,0,1.43116,726.9,-834.131)">
                        <path d="M730.256,1114.48L730.256,1297.83C730.256,1309.63 741.446,1320.5 759.464,1326.2C777.481,1331.9 799.475,1331.53 816.872,1325.23C816.873,1325.23 816.874,1325.23 816.876,1325.22C840.044,1316.83 855.223,1302.81 858.055,1287.17C859.672,1278.24 861.106,1270.33 861.106,1270.33" style="fill:none;stroke:black;stroke-width:27.29px;"/>
                    </g>
                </g>
                <g transform="matrix(1,0,0,1,1957.51,227.275)">
                    <g transform="matrix(1,0,0,1,-79.695,46.7265)">
                        <path d="M1078.38,891.109L1078.38,1245.04C1078.38,1245.04 1071.98,1248.04 1063.05,1252.22C1050.03,1258.32 1034.9,1257.98 1022.17,1251.31C1009.43,1244.63 1000.54,1232.39 998.143,1218.22C988.279,1159.96 974.742,1080.03 974.742,1080.03" style="fill:none;stroke:black;stroke-width:31.84px;"/>
                    </g>
                    <g transform="matrix(1.4632,0,0,1.4632,147.33,-1294.32)">
                        <path d="M558.339,1494.24C577.205,1494.24 592.522,1509.55 592.522,1528.42C592.522,1547.29 577.205,1562.6 558.339,1562.6C539.474,1562.6 524.157,1547.29 524.157,1528.42C524.157,1509.55 539.474,1494.24 558.339,1494.24ZM558.339,1516.02C551.484,1516.02 545.9,1521.56 545.9,1528.42C545.9,1535.28 551.484,1540.82 558.339,1540.82C565.195,1540.82 570.779,1535.28 570.779,1528.42C570.779,1521.56 565.195,1516.02 558.339,1516.02Z"/>
                    </g>
                </g>
                <g transform="matrix(1,0,0,1,1954.54,231.004)">
                    <g transform="matrix(1,0,0,1,-5.68434e-14,-1.69819)">
                        <g transform="matrix(1.4632,0,0,1.4632,-124.426,-1138.21)">
                            <path d="M558.339,1494.24C577.205,1494.24 592.522,1509.55 592.522,1528.42C592.522,1547.29 577.205,1562.6 558.339,1562.6C539.474,1562.6 524.157,1547.29 524.157,1528.42C524.157,1509.55 539.474,1494.24 558.339,1494.24ZM558.339,1516.02C551.484,1516.02 545.9,1521.56 545.9,1528.42C545.9,1535.28 551.484,1540.82 558.339,1540.82C565.195,1540.82 570.779,1535.28 570.779,1528.42C570.779,1521.56 565.195,1516.02 558.339,1516.02Z"/>
                        </g>
                        <g transform="matrix(1,0,0,1,0,-1.69819)">
                            <path d="M726.994,1102.43L726.994,1374.59C726.994,1389.91 735.129,1404.08 748.359,1411.8C761.59,1419.51 777.924,1419.63 791.26,1412.09C820.136,1395.77 847.837,1380.12 847.837,1380.12L847.837,885.101" style="fill:none;stroke:black;stroke-width:31.84px;"/>
                        </g>
                    </g>
                    <g transform="matrix(0.99994,-0.0109827,0.0109827,0.99994,-19.4855,3.77739)">
                        <g transform="matrix(0.922605,0,0,0.922605,59.716,78.5533)">
                            <path d="M765.977,968.045L765.977,1021.49C765.977,1022.45 766.484,1023.33 767.307,1023.81C768.13,1024.29 769.146,1024.29 769.975,1023.82C792.907,1010.79 906.722,946.093 906.722,946.093" style="fill:none;stroke:black;stroke-width:34.51px;"/>
                        </g>
                        <g transform="matrix(0.904387,0,0,0.904387,230.636,-411.661)">
                            <circle cx="558.339" cy="1528.42" r="34.182" style="fill:none;stroke:black;stroke-width:35.21px;"/>
                        </g>
                    </g>
                </g>
                <g transform="matrix(1,0,0,1,2349.64,1.4719)">
                    <g transform="matrix(0.999779,-0.0210436,0.0210436,0.999779,-29.5262,19.2696)">
                        <g transform="matrix(0.922605,0,0,0.922605,59.716,70.1998)">
                            <path d="M732.77,1037.93L734.058,1037.93C741.58,1037.93 748.976,1036.01 755.541,1032.34C786.976,1014.76 881.629,961.836 881.629,961.836" style="fill:none;stroke:black;stroke-width:34.51px;"/>
                        </g>
                        <g transform="matrix(0.904387,0,0,0.904387,232.851,-384.695)">
                            <circle cx="558.339" cy="1528.42" r="34.182" style="fill:none;stroke:black;stroke-width:35.21px;"/>
                        </g>
                    </g>
                    <g>
                        <g transform="matrix(1.4632,0,0,1.4632,-124.426,-1139.13)">
                            <path d="M558.339,1494.24C577.205,1494.24 592.522,1509.55 592.522,1528.42C592.522,1547.29 577.205,1562.6 558.339,1562.6C539.474,1562.6 524.157,1547.29 524.157,1528.42C524.157,1509.55 539.474,1494.24 558.339,1494.24ZM558.339,1516.02C551.484,1516.02 545.9,1521.56 545.9,1528.42C545.9,1535.28 551.484,1540.82 558.339,1540.82C565.195,1540.82 570.779,1535.28 570.779,1528.42C570.779,1521.56 565.195,1516.02 558.339,1516.02Z"/>
                        </g>
                        <path d="M726.994,1102.43L726.994,1366.89C726.994,1383.32 735.727,1398.51 749.923,1406.78C764.12,1415.04 781.64,1415.14 795.927,1407.03C822.936,1391.7 847.584,1377.71 847.584,1377.71L847.584,885.101" style="fill:none;stroke:black;stroke-width:31.84px;"/>
                    </g>
                    <g transform="matrix(0.999916,-0.0129828,0.0129828,0.999916,-11.2703,-0.497365)">
                        <g transform="matrix(0.922605,0,0,0.922605,56.0663,-0.010718)">
                            <path d="M762.345,963.131L762.345,1017.34C762.345,1019.29 763.379,1021.1 765.061,1022.08C766.743,1023.06 768.821,1023.08 770.519,1022.12C801.275,1004.82 908.3,944.625 908.3,944.625" style="fill:none;stroke:black;stroke-width:34.51px;"/>
                        </g>
                        <g transform="matrix(0.904387,0,0,0.904387,223.56,-493.009)">
                            <circle cx="558.339" cy="1528.42" r="34.182" style="fill:none;stroke:black;stroke-width:35.21px;"/>
                        </g>
                    </g>
                </g>
                <g transform="matrix(1,0,0,1,1958.22,224.377)">
                    <g transform="matrix(0.993367,0,0,1.02346,93.2847,-77.2599)">
                        <path d="M515.101,1164.54L515.101,1501.85" style="fill:none;stroke:black;stroke-width:31.36px;"/>
                    </g>
                    <g transform="matrix(1.4632,0,0,1.4632,-177.629,-773.199)">
                        <path d="M558.339,1494.24C577.205,1494.24 592.522,1509.55 592.522,1528.42C592.522,1547.29 577.205,1562.6 558.339,1562.6C539.474,1562.6 524.157,1547.29 524.157,1528.42C524.157,1509.55 539.474,1494.24 558.339,1494.24ZM558.339,1516.02C551.484,1516.02 545.9,1521.56 545.9,1528.42C545.9,1535.28 551.484,1540.82 558.339,1540.82C565.195,1540.82 570.779,1535.28 570.779,1528.42C570.779,1521.56 565.195,1516.02 558.339,1516.02Z"/>
                    </g>
                </g>
                <g transform="matrix(1,0,0,1,1961.62,224.377)">
                    <g transform="matrix(1.04073,0,0,1.04073,-22.9808,-47.4334)">
                        <path d="M515.101,1164.54L515.101,1501.85" style="fill:none;stroke:black;stroke-width:30.59px;"/>
                    </g>
                    <g transform="matrix(1.4632,0,0,1.4632,-270.272,-723.133)">
                        <path d="M558.339,1494.24C577.205,1494.24 592.522,1509.55 592.522,1528.42C592.522,1547.29 577.205,1562.6 558.339,1562.6C539.474,1562.6 524.157,1547.29 524.157,1528.42C524.157,1509.55 539.474,1494.24 558.339,1494.24ZM558.339,1516.02C551.484,1516.02 545.9,1521.56 545.9,1528.42C545.9,1535.28 551.484,1540.82 558.339,1540.82C565.195,1540.82 570.779,1535.28 570.779,1528.42C570.779,1521.56 565.195,1516.02 558.339,1516.02Z"/>
                    </g>
                </g>
            </g>
            <g id="ขนมปัง" transform="matrix(1.04321,0,0,1.04321,-166.496,-104.576)">
                <g transform="matrix(1,0,0,1,1717.64,952.642)">
                    <g transform="matrix(1.4632,0,0,1.4632,475.78,-1484.64)">
                        <path d="M558.339,1494.24C577.205,1494.24 592.522,1509.55 592.522,1528.42C592.522,1547.29 577.205,1562.6 558.339,1562.6C539.474,1562.6 524.157,1547.29 524.157,1528.42C524.157,1509.55 539.474,1494.24 558.339,1494.24ZM558.339,1516.02C551.484,1516.02 545.9,1521.56 545.9,1528.42C545.9,1535.28 551.484,1540.82 558.339,1540.82C565.195,1540.82 570.779,1535.28 570.779,1528.42C570.779,1521.56 565.195,1516.02 558.339,1516.02Z"/>
                    </g>
                    <g transform="matrix(1.4632,0,0,1.4632,651.899,-1251.03)">
                        <path d="M558.339,1494.24C577.205,1494.24 592.522,1509.55 592.522,1528.42C592.522,1547.29 577.205,1562.6 558.339,1562.6C539.474,1562.6 524.157,1547.29 524.157,1528.42C524.157,1509.55 539.474,1494.24 558.339,1494.24ZM558.339,1516.02C551.484,1516.02 545.9,1521.56 545.9,1528.42C545.9,1535.28 551.484,1540.82 558.339,1540.82C565.195,1540.82 570.779,1535.28 570.779,1528.42C570.779,1521.56 565.195,1516.02 558.339,1516.02Z"/>
                    </g>
                    <g transform="matrix(5.35164,0,0,1.54288,-6194.78,-366.122)">
                        <path d="M1428.02,642.591L1427.89,852.48L1427.89,858.526" style="fill:none;stroke:black;stroke-width:8.08px;"/>
                    </g>
                    <g transform="matrix(0.821177,0,0,1.43116,726.9,-834.131)">
                        <path d="M730.256,1114.48L730.256,1297.83C730.256,1309.63 741.446,1320.5 759.464,1326.2C777.481,1331.9 799.475,1331.53 816.872,1325.23C816.873,1325.23 816.874,1325.23 816.876,1325.22C840.044,1316.83 855.223,1302.81 858.055,1287.17C859.672,1278.24 861.106,1270.33 861.106,1270.33" style="fill:none;stroke:black;stroke-width:27.29px;"/>
                    </g>
                </g>
                <g transform="matrix(0.985146,0,0,0.985146,1994.13,822.316)">
                    <g transform="matrix(1.4632,0,0,1.4632,473.78,-1487.38)">
                        <path d="M558.339,1494.24C577.205,1494.24 592.522,1509.55 592.522,1528.42C592.522,1547.29 577.205,1562.6 558.339,1562.6C539.474,1562.6 524.157,1547.29 524.157,1528.42C524.157,1509.55 539.474,1494.24 558.339,1494.24ZM558.339,1516.02C551.484,1516.02 545.9,1521.56 545.9,1528.42C545.9,1535.28 551.484,1540.82 558.339,1540.82C565.195,1540.82 570.779,1535.28 570.779,1528.42C570.779,1521.56 565.195,1516.02 558.339,1516.02Z"/>
                    </g>
                    <g transform="matrix(1.4632,0,0,1.4632,504.321,-1173.12)">
                        <path d="M558.339,1494.24C577.205,1494.24 592.522,1509.55 592.522,1528.42C592.522,1547.29 577.205,1562.6 558.339,1562.6C539.474,1562.6 524.157,1547.29 524.157,1528.42C524.157,1509.55 539.474,1494.24 558.339,1494.24ZM558.339,1516.02C551.484,1516.02 545.9,1521.56 545.9,1528.42C545.9,1535.28 551.484,1540.82 558.339,1540.82C565.195,1540.82 570.779,1535.28 570.779,1528.42C570.779,1521.56 565.195,1516.02 558.339,1516.02Z"/>
                    </g>
                    <g transform="matrix(1.05473,0,0,1.16304,-181.163,14.2936)">
                        <path d="M1428.02,630.417L1428.39,862.378" style="fill:none;stroke:black;stroke-width:28.68px;"/>
                    </g>
                    <g transform="matrix(-1,0,0,1,2178.07,-357.264)">
                        <path d="M732.32,976.106L732.32,1349.02C732.32,1380.68 738.538,1399.39 798.353,1420.44C798.522,1420.5 798.71,1420.47 798.856,1420.37C801.77,1418.29 830.995,1397.49 830.995,1397.49" style="fill:none;stroke:black;stroke-width:31.84px;"/>
                    </g>
                </g>
                <g transform="matrix(1,0,0,1,2108.81,727.371)">
                    <g transform="matrix(1.4632,0,0,1.4632,-124.076,-1139.69)">
                        <path d="M558.339,1494.24C577.205,1494.24 592.522,1509.55 592.522,1528.42C592.522,1547.29 577.205,1562.6 558.339,1562.6C539.474,1562.6 524.157,1547.29 524.157,1528.42C524.157,1509.55 539.474,1494.24 558.339,1494.24ZM558.339,1516.02C551.484,1516.02 545.9,1521.56 545.9,1528.42C545.9,1535.28 551.484,1540.82 558.339,1540.82C565.195,1540.82 570.779,1535.28 570.779,1528.42C570.779,1521.56 565.195,1516.02 558.339,1516.02Z"/>
                    </g>
                    <path d="M726.994,1097.46L726.994,1372.11C726.994,1387.85 735.389,1402.38 749.016,1410.25C762.643,1418.11 779.431,1418.11 793.054,1410.24C805.839,1402.85 815.353,1397.35 815.353,1397.35L815.353,988.068" style="fill:none;stroke:black;stroke-width:31.84px;"/>
                </g>
                <g transform="matrix(1,0,0,1,2801.52,326.067)">
                    <g transform="matrix(1,0,0,1,-79.695,46.7265)">
                        <path d="M1078.38,891.109L1078.38,1245.04C1078.38,1245.04 1071.98,1248.04 1063.05,1252.22C1050.03,1258.32 1034.9,1257.98 1022.17,1251.31C1009.43,1244.63 1000.54,1232.39 998.143,1218.22C988.279,1159.96 974.742,1080.03 974.742,1080.03" style="fill:none;stroke:black;stroke-width:31.84px;"/>
                    </g>
                    <g transform="matrix(1.4632,0,0,1.4632,147.33,-1294.32)">
                        <path d="M558.339,1494.24C577.205,1494.24 592.522,1509.55 592.522,1528.42C592.522,1547.29 577.205,1562.6 558.339,1562.6C539.474,1562.6 524.157,1547.29 524.157,1528.42C524.157,1509.55 539.474,1494.24 558.339,1494.24ZM558.339,1516.02C551.484,1516.02 545.9,1521.56 545.9,1528.42C545.9,1535.28 551.484,1540.82 558.339,1540.82C565.195,1540.82 570.779,1535.28 570.779,1528.42C570.779,1521.56 565.195,1516.02 558.339,1516.02Z"/>
                    </g>
                </g>
                <g transform="matrix(1,0,0,1,2798.8,326.965)">
                    <g>
                        <g transform="matrix(1.4632,0,0,1.4632,-124.426,-1139.91)">
                            <path d="M558.339,1494.24C577.205,1494.24 592.522,1509.55 592.522,1528.42C592.522,1547.29 577.205,1562.6 558.339,1562.6C539.474,1562.6 524.157,1547.29 524.157,1528.42C524.157,1509.55 539.474,1494.24 558.339,1494.24ZM558.339,1516.02C551.484,1516.02 545.9,1521.56 545.9,1528.42C545.9,1535.28 551.484,1540.82 558.339,1540.82C565.195,1540.82 570.779,1535.28 570.779,1528.42C570.779,1521.56 565.195,1516.02 558.339,1516.02Z"/>
                        </g>
                        <path d="M726.994,1102.43L726.994,1375C726.994,1389.96 734.927,1403.8 747.836,1411.36C760.745,1418.91 776.694,1419.06 789.739,1411.74C819.156,1395.23 847.837,1379.14 847.837,1379.14L847.837,885.101" style="fill:none;stroke:black;stroke-width:31.84px;"/>
                    </g>
                    <g transform="matrix(0.999894,-0.0145643,0.0145643,0.999894,-23.2091,14.5725)">
                        <g transform="matrix(0.922605,0,0,0.922605,59.716,70.1998)">
                            <path d="M732.77,1037.93L734.058,1037.93C741.58,1037.93 748.976,1036.01 755.541,1032.34C786.976,1014.76 884.388,960.293 884.388,960.293" style="fill:none;stroke:black;stroke-width:34.51px;"/>
                        </g>
                        <g transform="matrix(0.904387,0,0,0.904387,232.851,-384.695)">
                            <circle cx="558.339" cy="1528.42" r="34.182" style="fill:none;stroke:black;stroke-width:35.21px;"/>
                        </g>
                    </g>
                </g>
            </g>
        </g>
    </g>
</svg>
